<svg width="1200" height="800" xmlns="http://www.w3.org/2000/svg">
 <style>text { font-family: sans-serif; }
    .title { font-size: 22px; font-weight: bold; fill: #1a1a2e; }
    .subtitle { font-size: 14px; fill: #666; }
    .label { font-size: 12px; fill: #555; }
    .val { font-size: 14px; fill: #222; }
    .border { fill: none; stroke: #ddd; stroke-width: 1.5; }
    .border-dark { fill: none; stroke: #999; stroke-width: 1.5; }
    .fill-light { fill: #f5f5f8; }
    .fill-white { fill: #fff; }
    .fill-blue { fill: #e8f0fe; }
    .fill-green { fill: #e6f4ea; }
    .fill-yellow { fill: #fef7e0; }
    .fill-red { fill: #fce8e6; }
    .accent { fill: #1a73e8; }
    .accent-text { fill: #fff; font-size: 13px; font-weight: bold; }
    .icon-box { fill: none; stroke: #bbb; stroke-width: 1.5; rx: 4; }
    .line { fill: none; stroke: #e0e0e0; stroke-width: 1; }
    .line-dark { fill: none; stroke: #ccc; stroke-width: 1; }</style>

 <!-- Sidebar -->
 <!-- Nav items -->
 <!-- Header -->
 <g>
  <title>background</title>
  <rect fill="none" id="canvas_background" height="602" width="802" y="-1" x="-1"/>
 </g>
 <g>
  <title>Layer 1</title>
  <rect id="svg_1" class="fill-light border" height="800" width="220" y="0" x="0"/>
  <rect id="svg_2" fill="#1a1a2e" height="60" width="220" y="0" x="0"/>
  <text id="svg_3" fill="#fff" font-weight="bold" font-size="18" y="38" x="30">OrthoAnalyse</text>
  <rect id="svg_4" rx="6" fill="transparent" height="40" width="200" y="80" x="10"/>
  <text id="svg_5" font-weight="normal" font-size="14" fill="#444" y="105" x="30">Dashboard</text>
  <rect id="svg_6" rx="6" fill="transparent" height="40" width="200" y="130" x="10"/>
  <text id="svg_7" font-weight="normal" font-size="14" fill="#444" y="155" x="30">Patients</text>
  <rect id="svg_8" rx="6" fill="transparent" height="40" width="200" y="180" x="10"/>
  <text id="svg_9" font-weight="normal" font-size="14" fill="#444" y="205" x="30">Analyses</text>
  <rect id="svg_10" rx="6" fill="transparent" height="40" width="200" y="230" x="10"/>
  <text id="svg_11" font-weight="normal" font-size="14" fill="#444" y="255" x="30">Rapports</text>
  <rect id="svg_12" rx="6" fill="#e8f0fe" height="40" width="200" y="280" x="10"/>
  <text id="svg_13" font-weight="bold" font-size="14" fill="#1a73e8" y="305" x="30">Admin</text>
  <rect id="svg_14" rx="6" fill="transparent" height="40" width="200" y="330" x="10"/>
  <text id="svg_15" font-weight="normal" font-size="14" fill="#444" y="355" x="30">Paramètres</text>
  <rect id="svg_16" class="fill-white border" height="60" width="980" y="0" x="220"/>
  <text id="svg_17" class="title" y="35" x="250">Gestion des utilisateurs</text>
  <text id="svg_18" class="val" text-anchor="end" y="35" x="1100">Dr. Dupont</text>
  <rect id="svg_19" rx="12" class="icon-box" height="24" width="40" y="18" x="1130"/>
  <text id="svg_20" font-size="11" class="label" text-anchor="middle" y="35" x="1150">EN</text>
  <rect id="svg_21" ry="6" rx="6" class="border fill-white" height="40" width="400" y="85" x="250"/>
  <text id="svg_22" class="subtitle" y="110" x="270">🔍 Rechercher un utilisateur...</text>
  <rect id="svg_23" ry="6" rx="6" class="accent" height="40" width="150" y="85" x="670"/>
  <text id="svg_24" class="accent-text" y="110" x="717">+ Ajouter</text>
  <rect id="svg_25" ry="8" rx="8" class="fill-white border" height="380" width="820" y="145" x="250"/>
  <rect id="svg_26" ry="4" rx="4" class="fill-light" height="30" width="800" y="145" x="260"/>
  <text id="svg_27" class="label" y="165" x="270">Utilisateur</text>
  <text id="svg_28" class="label" y="165" x="450">Email</text>
  <text id="svg_29" class="label" y="165" x="630">Rôle</text>
  <text id="svg_30" class="label" y="165" x="740">Statut</text>
  <text id="svg_31" class="label" y="165" x="840">Dernière connexion</text>
  <line id="svg_32" class="line" y2="185" x2="1060" y1="185" x1="260"/>
  <text id="svg_33" class="val" y="203" x="270">Dr. Dupont</text>
  <text id="svg_34" class="val" y="203" x="450">dupont@cabinet.fr</text>
  <text id="svg_35" class="val" y="203" x="630">Orthodontiste</text>
  <text id="svg_36" class="val" y="203" x="740">Actif</text>
  <text id="svg_37" class="subtitle" y="203" x="840">15/05/2026 09:30</text>
  <line id="svg_38" class="line" y2="230" x2="1060" y1="230" x1="260"/>
  <text id="svg_39" class="val" y="248" x="270">Dr. Martin</text>
  <text id="svg_40" class="val" y="248" x="450">martin@cabinet.fr</text>
  <text id="svg_41" class="val" y="248" x="630">Orthodontiste</text>
  <text id="svg_42" class="val" y="248" x="740">Actif</text>
  <text id="svg_43" class="subtitle" y="248" x="840">14/05/2026 14:15</text>
  <line id="svg_44" class="line" y2="275" x2="1060" y1="275" x1="260"/>
  <text id="svg_45" class="val" y="293" x="270">Sophie Bernard</text>
  <text id="svg_46" class="val" y="293" x="450">sophie@cabinet.fr</text>
  <text id="svg_47" class="val" y="293" x="630">Assistant</text>
  <text id="svg_48" class="val" y="293" x="740">Actif</text>
  <text id="svg_49" class="subtitle" y="293" x="840">15/05/2026 08:45</text>
  <line id="svg_50" class="line" y2="320" x2="1060" y1="320" x1="260"/>
  <text id="svg_51" class="val" y="338" x="270">Julie Leroy</text>
  <text id="svg_52" class="val" y="338" x="450">julie@cabinet.fr</text>
  <text id="svg_53" class="val" y="338" x="630">Assistant</text>
  <text id="svg_54" class="val" y="338" x="740">Inactif</text>
  <text id="svg_55" class="subtitle" y="338" x="840">10/05/2026</text>
  <line id="svg_56" class="line" y2="365" x2="1060" y1="365" x1="260"/>
  <text id="svg_57" class="val" y="383" x="270">Marc Dubois</text>
  <text id="svg_58" class="val" y="383" x="450">marc@cabinet.fr</text>
  <text id="svg_59" class="val" y="383" x="630">Stagiaire</text>
  <text id="svg_60" class="val" y="383" x="740">Actif</text>
  <text id="svg_61" class="subtitle" y="383" x="840">12/05/2026 11:00</text>
  <line id="svg_62" class="line" y2="410" x2="1060" y1="410" x1="260"/>
  <text id="svg_63" class="val" y="428" x="270">Admin Système</text>
  <text id="svg_64" class="val" y="428" x="450">admin@cabinet.fr</text>
  <text id="svg_65" class="val" y="428" x="630">Administrateur</text>
  <text id="svg_66" class="val" y="428" x="740">Actif</text>
  <text id="svg_67" class="subtitle" y="428" x="840">15/05/2026 10:00</text>
 </g>
</svg>