<?xml version="1.0" encoding="UTF-8"?>
<svg xmlns="http://www.w3.org/2000/svg" viewBox="0 0 900 700" width="900" height="700">
  <style>
    text { font-family: sans-serif; }
    .title { font-size: 22px; font-weight: bold; fill: #1a1a2e; }
    .subtitle { font-size: 14px; fill: #666; }
    .label { font-size: 12px; fill: #555; }
    .val { font-size: 14px; fill: #222; }
    .border { fill: none; stroke: #ddd; stroke-width: 1.5; }
    .border-dark { fill: none; stroke: #999; stroke-width: 1.5; }
    .fill-light { fill: #f5f5f8; }
    .fill-white { fill: #fff; }
    .fill-blue { fill: #e8f0fe; }
    .fill-green { fill: #e6f4ea; }
    .fill-yellow { fill: #fef7e0; }
    .fill-red { fill: #fce8e6; }
    .accent { fill: #1a73e8; }
    .accent-text { fill: #fff; font-size: 13px; font-weight: bold; }
    .icon-box { fill: none; stroke: #bbb; stroke-width: 1.5; rx: 4; }
    .line { fill: none; stroke: #e0e0e0; stroke-width: 1; }
    .line-dark { fill: none; stroke: #ccc; stroke-width: 1; }
  </style>

  <style>
    .box { fill: #fff; stroke: #1a73e8; stroke-width: 2; rx: 8; }
    .box-green { fill: #e6f4ea; stroke: #137333; stroke-width: 2; rx: 8; }
    .box-orange { fill: #fef7e0; stroke: #b06000; stroke-width: 2; rx: 8; }
    .arrow { fill: none; stroke: #999; stroke-width: 1.5; marker-end: url(#arrowhead); }
    text { font-family: sans-serif; text-anchor: middle; }
    .s-title { font-size: 16px; font-weight: bold; fill: #1a1a2e; }
    .s-sub { font-size: 11px; fill: #555; }
  </style>
  <defs>
    <marker id="arrowhead" markerWidth="10" markerHeight="7" refX="10" refY="3.5" orient="auto">
      <polygon points="0 0, 10 3.5, 0 7" fill="#999"/>
    </marker>
  </defs>
  <rect x="370" y="30" width="160" height="60" class="box" rx="0" ry="0"/>
  <text x="450" y="58" class="s-title">Connexion</text>
  <text x="450" y="75" class="s-sub">Page de login</text>
  <line x1="450" y1="90" x2="450" y2="120" class="arrow"/>
  <rect x="250" y="120" width="400" height="50" class="box-green" rx="0" ry="0"/>
  <text x="450" y="148" class="s-title">Tableau de bord</text>
  <text x="450" y="162" class="s-sub">Vue d'ensemble, statistiques, patients récents</text>
  <line x1="350" y1="170" x2="180" y2="210" class="arrow"/>
  <line x1="450" y1="170" x2="450" y2="210" class="arrow"/>
  <line x1="550" y1="170" x2="720" y2="210" class="arrow"/>
  <rect x="90" y="210" width="170" height="55" class="box" rx="0" ry="0"/>
  <text x="175" y="240" class="s-title">Patients</text>
  <text x="175" y="258" class="s-sub">Liste, recherche, filtres</text>
  <rect x="370" y="210" width="170" height="55" class="box" rx="0" ry="0"/>
  <text x="455" y="240" class="s-title">Analyses</text>
  <text x="455" y="258" class="s-sub">Canvas céphalométrique</text>
  <rect x="640" y="210" width="170" height="55" class="box" rx="0" ry="0"/>
  <text x="725" y="240" class="s-title">Rapports</text>
  <text x="725" y="258" class="s-sub">Génération, export PDF</text>
  <line x1="175" y1="265" x2="175" y2="310" class="arrow"/>
  <line x1="370" y1="170" x2="175" y2="310" class="arrow"/>
  <line x1="450" y1="265" x2="450" y2="310" class="arrow"/>
  <line x1="725" y1="265" x2="725" y2="310" class="arrow"/>
  <rect x="90" y="310" width="170" height="55" class="box-orange" rx="0" ry="0"/>
  <text x="175" y="340" class="s-title">Détail patient</text>
  <text x="175" y="358" class="s-sub">Timeline, radios, notes</text>
  <rect x="370" y="310" width="170" height="55" class="box-orange" rx="0" ry="0"/>
  <text x="455" y="340" class="s-title">Résultats analyse</text>
  <text x="455" y="358" class="s-sub">Mesures, comparaisons</text>
  <rect x="640" y="310" width="170" height="55" class="box-orange" rx="0" ry="0"/>
  <text x="725" y="340" class="s-title">Détail rapport</text>
  <text x="725" y="358" class="s-sub">Aperçu, signature</text>
  <line x1="175" y1="365" x2="175" y2="410" class="arrow"/>
  <line x1="725" y1="365" x2="725" y2="410" class="arrow"/>
  <line x1="450" y1="365" x2="450" y2="410" class="arrow"/>
  <rect x="90" y="410" width="170" height="55" class="box" rx="0" ry="0"/>
  <text x="175" y="440" class="s-title">Admin Utilisateurs</text>
  <text x="175" y="458" class="s-sub">Gestion des comptes</text>
  <rect x="370" y="410" width="170" height="55" class="box" rx="0" ry="0"/>
  <text x="455" y="440" class="s-title">Admin Paramètres</text>
  <text x="455" y="458" class="s-sub">Configuration cabinet</text>
  <rect x="640" y="410" width="170" height="55" class="box" rx="0" ry="0"/>
  <text x="725" y="440" class="s-title">Journal d'audit</text>
  <text x="725" y="458" class="s-sub">Traçabilité des actions</text>
  <text x="450" y="690" class="s-sub">Architecture de navigation — Application OrthoAnalyse v1.0</text>
</svg>